<?xml version="1.0" encoding="UTF-8" standalone="no"?>
<!DOCTYPE svg PUBLIC "-//W3C//DTD SVG 1.1//EN"
 "http://www.w3.org/Graphics/SVG/1.1/DTD/svg11.dtd">
<!-- Generated by graphviz version 2.47.3 (20210619.1520)
 -->
<!-- Title: dependencies Pages: 1 -->
<svg width="1001pt" height="247pt"
 viewBox="0.00 0.00 1001.00 246.80" xmlns="http://www.w3.org/2000/svg" xmlns:xlink="http://www.w3.org/1999/xlink">
<g id="graph0" class="graph" transform="scale(1 1) rotate(0) translate(4 242.8)">
<title>dependencies</title>
<polygon fill="white" stroke="transparent" points="-4,4 -4,-242.8 997,-242.8 997,4 -4,4"/>
<text text-anchor="middle" x="496.5" y="-8.2" font-family="sans-serif" font-size="14.00">dependencies</text>
<g id="clust1" class="cluster">
<title>cluster_AppModule</title>
<polygon fill="none" stroke="black" stroke-dasharray="1,5" points="8,-32.8 8,-230.8 985,-230.8 985,-32.8 8,-32.8"/>
</g>
<g id="clust8" class="cluster">
<title>cluster_AppModule_imports</title>
<polygon fill="none" stroke="black" points="833,-40.8 833,-92.8 977,-92.8 977,-40.8 833,-40.8"/>
</g>
<g id="clust2" class="cluster">
<title>cluster_AppModule_declarations</title>
<polygon fill="none" stroke="black" points="154,-40.8 154,-92.8 825,-92.8 825,-40.8 154,-40.8"/>
</g>
<g id="clust10" class="cluster">
<title>cluster_AppModule_bootstrap</title>
<polygon fill="none" stroke="black" points="443,-170.8 443,-222.8 567,-222.8 567,-170.8 443,-170.8"/>
</g>
<g id="clust11" class="cluster">
<title>cluster_AppModule_providers</title>
<polygon fill="none" stroke="black" points="16,-40.8 16,-92.8 146,-92.8 146,-40.8 16,-40.8"/>
</g>
<!-- AppComponent -->
<g id="node1" class="node">
<title>AppComponent</title>
<polygon fill="#ffffb3" stroke="black" points="816.94,-84.8 711.06,-84.8 711.06,-48.8 816.94,-48.8 816.94,-84.8"/>
<text text-anchor="middle" x="764" y="-62.6" font-family="Times,serif" font-size="14.00">AppComponent</text>
</g>
<!-- AppModule -->
<g id="node6" class="node">
<title>AppModule</title>
<polygon fill="#8dd3c7" stroke="black" points="546.66,-149.8 543.66,-153.8 522.66,-153.8 519.66,-149.8 463.34,-149.8 463.34,-113.8 546.66,-113.8 546.66,-149.8"/>
<text text-anchor="middle" x="505" y="-127.6" font-family="Times,serif" font-size="14.00">AppModule</text>
</g>
<!-- AppComponent&#45;&gt;AppModule -->
<g id="edge1" class="edge">
<title>AppComponent&#45;&gt;AppModule</title>
<path fill="none" stroke="black" d="M764,-84.91C764,-104.14 764,-131.8 764,-131.8 764,-131.8 556.9,-131.8 556.9,-131.8"/>
<polygon fill="black" stroke="black" points="556.9,-128.3 546.9,-131.8 556.9,-135.3 556.9,-128.3"/>
</g>
<!-- CreateComponent -->
<g id="node2" class="node">
<title>CreateComponent</title>
<polygon fill="#ffffb3" stroke="black" points="692.86,-84.8 575.14,-84.8 575.14,-48.8 692.86,-48.8 692.86,-84.8"/>
<text text-anchor="middle" x="634" y="-62.6" font-family="Times,serif" font-size="14.00">CreateComponent</text>
</g>
<!-- CreateComponent&#45;&gt;AppModule -->
<g id="edge2" class="edge">
<title>CreateComponent&#45;&gt;AppModule</title>
<path fill="none" stroke="black" d="M634,-84.83C634,-101.2 634,-122.8 634,-122.8 634,-122.8 556.88,-122.8 556.88,-122.8"/>
<polygon fill="black" stroke="black" points="556.88,-119.3 546.88,-122.8 556.88,-126.3 556.88,-119.3"/>
</g>
<!-- EditComponent -->
<g id="node3" class="node">
<title>EditComponent</title>
<polygon fill="#ffffb3" stroke="black" points="557.17,-84.8 452.83,-84.8 452.83,-48.8 557.17,-48.8 557.17,-84.8"/>
<text text-anchor="middle" x="505" y="-62.6" font-family="Times,serif" font-size="14.00">EditComponent</text>
</g>
<!-- EditComponent&#45;&gt;AppModule -->
<g id="edge3" class="edge">
<title>EditComponent&#45;&gt;AppModule</title>
<path fill="none" stroke="black" d="M505,-84.91C505,-84.91 505,-103.79 505,-103.79"/>
<polygon fill="black" stroke="black" points="501.5,-103.79 505,-113.79 508.5,-103.79 501.5,-103.79"/>
</g>
<!-- NotfoundComponent -->
<g id="node4" class="node">
<title>NotfoundComponent</title>
<polygon fill="#ffffb3" stroke="black" points="434.49,-84.8 299.51,-84.8 299.51,-48.8 434.49,-48.8 434.49,-84.8"/>
<text text-anchor="middle" x="367" y="-62.6" font-family="Times,serif" font-size="14.00">NotfoundComponent</text>
</g>
<!-- NotfoundComponent&#45;&gt;AppModule -->
<g id="edge4" class="edge">
<title>NotfoundComponent&#45;&gt;AppModule</title>
<path fill="none" stroke="black" d="M367,-84.83C367,-101.2 367,-122.8 367,-122.8 367,-122.8 453.22,-122.8 453.22,-122.8"/>
<polygon fill="black" stroke="black" points="453.22,-126.3 463.22,-122.8 453.22,-119.3 453.22,-126.3"/>
</g>
<!-- SearchComponent -->
<g id="node5" class="node">
<title>SearchComponent</title>
<polygon fill="#ffffb3" stroke="black" points="281.92,-84.8 162.08,-84.8 162.08,-48.8 281.92,-48.8 281.92,-84.8"/>
<text text-anchor="middle" x="222" y="-62.6" font-family="Times,serif" font-size="14.00">SearchComponent</text>
</g>
<!-- SearchComponent&#45;&gt;AppModule -->
<g id="edge5" class="edge">
<title>SearchComponent&#45;&gt;AppModule</title>
<path fill="none" stroke="black" d="M222,-84.91C222,-104.14 222,-131.8 222,-131.8 222,-131.8 453.24,-131.8 453.24,-131.8"/>
<polygon fill="black" stroke="black" points="453.24,-135.3 463.24,-131.8 453.24,-128.3 453.24,-135.3"/>
</g>
<!-- AppComponent  -->
<g id="node8" class="node">
<title>AppComponent </title>
<polygon fill="#80b1d3" stroke="black" points="559.44,-214.8 450.56,-214.8 450.56,-178.8 559.44,-178.8 559.44,-214.8"/>
<text text-anchor="middle" x="505" y="-192.6" font-family="Times,serif" font-size="14.00">AppComponent </text>
</g>
<!-- AppModule&#45;&gt;AppComponent  -->
<g id="edge7" class="edge">
<title>AppModule&#45;&gt;AppComponent </title>
<path fill="none" stroke="black" stroke-dasharray="1,5" d="M505,-149.91C505,-149.91 505,-168.79 505,-168.79"/>
<polygon fill="black" stroke="black" points="501.5,-168.79 505,-178.79 508.5,-168.79 501.5,-168.79"/>
</g>
<!-- AppRoutingModule -->
<g id="node7" class="node">
<title>AppRoutingModule</title>
<polygon fill="#8dd3c7" stroke="black" points="969.27,-84.8 966.27,-88.8 945.27,-88.8 942.27,-84.8 840.73,-84.8 840.73,-48.8 969.27,-48.8 969.27,-84.8"/>
<text text-anchor="middle" x="905" y="-62.6" font-family="Times,serif" font-size="14.00">AppRoutingModule</text>
</g>
<!-- AppRoutingModule&#45;&gt;AppModule -->
<g id="edge6" class="edge">
<title>AppRoutingModule&#45;&gt;AppModule</title>
<path fill="none" stroke="black" d="M905,-85.09C905,-107.01 905,-140.8 905,-140.8 905,-140.8 556.68,-140.8 556.68,-140.8"/>
<polygon fill="black" stroke="black" points="556.68,-137.3 546.68,-140.8 556.67,-144.3 556.68,-137.3"/>
</g>
<!-- AppService -->
<g id="node9" class="node">
<title>AppService</title>
<ellipse fill="#fdb462" stroke="black" cx="81" cy="-66.8" rx="56.74" ry="18"/>
<text text-anchor="middle" x="81" y="-62.6" font-family="Times,serif" font-size="14.00">AppService</text>
</g>
<!-- AppService&#45;&gt;AppModule -->
<g id="edge8" class="edge">
<title>AppService&#45;&gt;AppModule</title>
<path fill="none" stroke="black" d="M81,-85.09C81,-107.01 81,-140.8 81,-140.8 81,-140.8 453.18,-140.8 453.18,-140.8"/>
<polygon fill="black" stroke="black" points="453.18,-144.3 463.18,-140.8 453.18,-137.3 453.18,-144.3"/>
</g>
</g>
</svg>
